# xmcd
#
# Track frame offsets:
#	150
#	18184
#	31695
#	49169
#	65475
#	95778
#	117164
#	135644
#	148428
#	161201
#
# Disc length: 2366 seconds
#
# Revision: 1
# Processed by: cddbd v1.5.2PL0 Copyright (c) Steve Scherf et al.
# Submitted via: EasyCDDAExtractor 5.1.0
#
DISCID=8e093c0a
DTITLE=Alice Cooper - House Of Blues Hollywood 01-08-03 Disc 2
DYEAR=2003
DGENRE=Hard Rock
TTITLE0=Welcome To My Nightmare
TTITLE1=Cold Ethyl
TTITLE2=Only Women Bleed
TTITLE3=Ballad Of Dwight Fry
TTITLE4=School's Out
TTITLE5=Poison
TTITLE6=Elected 
TTITLE7=Between High School And Old School
TTITLE8=Band Intros
TTITLE9=Under My Wheels
EXTD=
EXTT0=
EXTT1=
EXTT2=
EXTT3=
EXTT4=
EXTT5=
EXTT6=
EXTT7=
EXTT8=
EXTT9=
PLAYORDER=
